# xmcd
# 
# Track frame offsets:
#     150
#     23092
#     41980
#     63087
#     86212
#     103517
#     122380
#     143355
#     160750
#     175755
#     194942
#     217955
#     239567
#     256687
#     271445
#     292655
#     315987
# 
# Disc length: 4499
# 
# Revision: 2
# Processed by: cddbd v1.5.2PL0 Copyright (c) Steve Scherf et al.
# Submitted via: fre:ac v1.0.17
# 
DISCID=e5119111
DTITLE=加藤登紀子 - TOKIKO SONGS
DYEAR=1991
DGENRE=J-Pop
TTITLE0=百万本のバラ
TTITLE1=難破船
TTITLE2=愛さずにはいられない
TTITLE3=時代おくれの酒場
TTITLE4=灰色の瞳
TTITLE5=琵琶湖周航の歌
TTITLE6=愛のくらし
TTITLE7=この空を飛べたら
TTITLE8=ひとり寝の子守唄
TTITLE9=鳳仙花
TTITLE10=ANAK<息子>
TTITLE11=雑踏～La Foule～
TTITLE12=リリー・マルレーン
TTITLE13=知床旅情
TTITLE14=Revolution
TTITLE15=LOVE LOVE LOVE
TTITLE16=私のヴァンサンカン
EXTD=
EXTT0=
EXTT1=
EXTT2=
EXTT3=
EXTT4=
EXTT5=
EXTT6=
EXTT7=
EXTT8=
EXTT9=
EXTT10=
EXTT11=
EXTT12=
EXTT13=
EXTT14=
EXTT15=
EXTT16=
PLAYORDER=
